<svg width="130" height="136" viewBox="0 0 130 136" fill="none" xmlns="http://www.w3.org/2000/svg">
<path d="M54.486 80.363L50.724 78.156L54.047 76.218L57.808 78.425L54.486 80.363Z" fill="#2B333B"/>
<path d="M57.808 78.425V80.388L54.486 82.326V80.363L57.808 78.425Z" fill="#131719"/>
<path d="M50.724 78.156V80.119L54.486 82.326V80.363L50.724 78.156Z" fill="#20262B"/>
<path d="M54.455 53.335L51.211 51.433L54.077 49.761L57.32 51.665L54.455 53.335Z" fill="#2B333B"/>
<path d="M57.32 51.665V78.422L54.455 80.093V53.335L57.32 51.665Z" fill="#131719"/>
<path d="M51.211 51.433V78.191L54.455 80.093V53.335L51.211 51.433Z" fill="#20262B"/>
<path d="M54.387 9.45799L52.31 8.239L54.145 7.16901L56.222 8.388L54.387 9.45799Z" fill="#D9D9D9"/>
<path d="M56.222 8.388V51.685L54.387 52.755V9.45799L56.222 8.388Z" fill="#A1A1A1"/>
<path d="M52.31 8.239V51.536L54.387 52.755V9.45799L52.31 8.239Z" fill="#BFBFBF"/>
<path d="M51.984 26.158L54.387 24.617V22.951L50.747 24.485L49.903 25.029L51.984 26.158Z" fill="#A1A1A1"/>
<path d="M51.984 24.404L54.387 22.951L52.306 21.822L49.903 23.275L51.984 24.404Z" fill="#D9D9D9"/>
<path d="M51.984 24.404V26.158L49.903 25.029V23.275L51.984 24.404Z" fill="#BFBFBF"/>
<path d="M68.119 82.921V85.378L104.599 106.355V103.896L68.119 82.921Z" fill="#BFBFBF"/>
<path d="M106.294 102.959V105.417L104.599 106.355V103.896L106.294 102.959Z" fill="#A1A1A1"/>
<path d="M69.836 81.882L106.294 102.959L104.599 103.896L68.119 82.921L69.836 81.882Z" fill="#D9D9D9"/>
<path d="M54.455 57.168V61.254L101.497 88.566V84.48L54.455 57.168Z" fill="#20262B"/>
<path d="M104.317 82.921V87.007L101.497 88.566V84.48L104.317 82.921Z" fill="#A1A1A1"/>
<path d="M57.31 55.441L104.317 82.921L101.497 84.48L54.455 57.168L57.31 55.441Z" fill="#2B333B"/>
<path d="M80.142 89.864V92.322L18.508 127.731V125.273L80.142 89.864Z" fill="#A1A1A1"/>
<path d="M16.813 124.335V126.793L18.508 127.731V125.273L16.813 124.335Z" fill="#BFBFBF"/>
<path d="M78.425 88.824L16.813 124.335L18.508 125.273L80.142 89.864L78.425 88.824Z" fill="#D9D9D9"/>
<path d="M16.717 134.146L13.243 132.105L16.312 130.316L19.787 132.355L16.717 134.146Z" fill="#2B333B"/>
<path d="M19.787 132.355V134.167L16.717 135.958V134.146L19.787 132.355Z" fill="#131719"/>
<path d="M13.243 132.105V133.919L16.717 135.958V134.146L13.243 132.105Z" fill="#20262B"/>
<path d="M16.667 107.691L14.05 106.155L16.362 104.807L18.979 106.342L16.667 107.691Z" fill="#D9D9D9"/>
<path d="M18.979 106.342V132.379L16.667 133.728V107.691L18.979 106.342Z" fill="#A1A1A1"/>
<path d="M14.053 106.152V132.191L16.667 133.728V107.688L14.053 106.152ZM15.365 118.756C14.81 118.436 14.362 117.581 14.362 116.845C14.362 116.109 14.81 115.767 15.365 116.087C15.92 116.407 16.357 117.261 16.357 117.997C16.357 118.734 15.92 119.074 15.365 118.756ZM15.365 113.984C14.81 113.665 14.362 112.81 14.362 112.075C14.362 111.339 14.81 111.008 15.365 111.328C15.92 111.638 16.357 112.501 16.357 113.227C16.357 113.963 15.92 114.306 15.365 113.984Z" fill="#BFBFBF"/>
<path d="M16.159 118.199C15.607 117.881 15.16 117.027 15.16 116.291C15.16 116.19 15.17 116.097 15.186 116.01C14.719 115.853 14.364 116.19 14.364 116.844C14.364 117.579 14.811 118.434 15.363 118.752C15.838 119.026 16.234 118.811 16.335 118.277C16.278 118.258 16.219 118.234 16.159 118.199Z" fill="#8C8C8C"/>
<path d="M16.159 113.435C15.607 113.118 15.16 112.262 15.16 111.526C15.16 111.425 15.17 111.332 15.186 111.246C14.719 111.089 14.364 111.426 14.364 112.08C14.364 112.815 14.811 113.67 15.363 113.988C15.838 114.261 16.234 114.047 16.335 113.514C16.278 113.494 16.219 113.469 16.159 113.435Z" fill="#8C8C8C"/>
<path d="M25.735 116.316L8.14301 106.064L76.464 66.306L94.057 76.674L25.735 116.316Z" fill="black"/>
<path d="M25.735 112.124L8.14301 101.873L76.464 62.231L94.057 72.482L25.735 112.124Z" fill="#D9D9D9"/>
<path d="M94.057 72.482V76.674L25.735 116.316V112.124L94.057 72.482Z" fill="#A1A1A1"/>
<path d="M8.14301 101.873V106.064L25.735 116.316V112.124L8.14301 101.873Z" fill="#BFBFBF"/>
<path d="M95.783 69.951L95.774 71.907C95.779 71.982 95.779 72.055 95.774 72.13V72.279H95.77C95.672 73.532 94.727 74.826 92.947 75.856L33.534 110.855C32.878 111.233 32.155 111.55 31.401 111.796C28.783 112.657 25.728 112.731 23.39 111.973C22.869 111.801 22.385 111.591 21.946 111.339L8.598 103.542C7.265 102.773 6.609 101.745 6.595 100.669H6.59V98.223H7.665C8.123 97.736 8.69899 97.274 9.42599 96.849L10.614 96.165L68.845 61.846C72.273 59.867 77.462 59.652 80.433 61.366L93.782 69.163C94.424 69.536 94.904 69.973 95.235 70.439L95.783 69.951Z" fill="#B31F00"/>
<path d="M23.39 96.166V111.974C22.869 111.802 22.385 111.592 21.946 111.34L8.598 103.543C7.265 102.774 6.609 101.746 6.595 100.67H6.59V98.224H7.665C8.123 97.737 8.69899 97.275 9.42599 96.85L10.614 96.166H23.39Z" fill="#E63515"/>
<path d="M31.401 107.517V111.797C28.783 112.658 25.728 112.732 23.39 111.974V107.517H31.401Z" fill="#BD2A0B"/>
<path d="M21.945 109.242L8.59599 101.446C5.62599 99.731 5.99799 96.736 9.42899 94.755L68.843 59.754C72.273 57.773 77.461 57.558 80.432 59.273L93.781 67.069C96.752 68.784 96.379 71.78 92.949 73.76L33.535 108.762C30.104 110.742 24.915 110.957 21.945 109.242Z" fill="#F93A17"/>
<path d="M104.044 108.795L100.283 106.588L103.605 104.648L107.366 106.856L104.044 108.795Z" fill="#2B333B"/>
<path d="M107.366 106.856V108.819L104.044 110.758V108.795L107.366 106.856Z" fill="#131719"/>
<path d="M100.283 106.588V108.551L104.044 110.758V108.795L100.283 106.588Z" fill="#20262B"/>
<path d="M104.014 81.767L100.77 79.863L103.635 78.192L106.879 80.096L104.014 81.767Z" fill="#2B333B"/>
<path d="M106.879 80.096V106.854L104.014 108.525V81.767L106.879 80.096Z" fill="#131719"/>
<path d="M100.77 79.863V106.621L104.014 108.525V81.767L100.77 79.863Z" fill="#20262B"/>
<path d="M103.946 37.889L101.868 36.67L103.704 35.6L105.781 36.819L103.946 37.889Z" fill="#D9D9D9"/>
<path d="M105.781 36.819V80.116L103.946 81.186V37.889L105.781 36.819Z" fill="#A1A1A1"/>
<path d="M101.868 36.67V79.967L103.946 81.186V37.889L101.868 36.67Z" fill="#BFBFBF"/>
<path d="M101.546 53.954L103.949 52.413V50.747L100.309 52.281L99.465 52.825L101.546 53.954Z" fill="#A1A1A1"/>
<path d="M101.546 52.2L103.949 50.747L101.868 49.618L99.465 51.071L101.546 52.2Z" fill="#D9D9D9"/>
<path d="M101.546 52.2V53.954L99.465 52.825V51.071L101.546 52.2Z" fill="#BFBFBF"/>
<path d="M101.546 68.684L103.949 67.143V65.477L100.309 67.01L99.465 67.555L101.546 68.684Z" fill="#A1A1A1"/>
<path d="M101.546 66.93L103.949 65.477L101.868 64.348L99.465 65.801L101.546 66.93Z" fill="#D9D9D9"/>
<path d="M101.546 66.93V68.684L99.465 67.555V65.801L101.546 66.93Z" fill="#BFBFBF"/>
<path d="M101.546 66.93L101.868 66.725V65.058L100.309 65.256L99.465 65.801L101.546 66.93Z" fill="#A1A1A1"/>
<path d="M101.546 65.176L101.868 65.058L99.787 63.929L99.465 64.046L101.546 65.176Z" fill="#D9D9D9"/>
<path d="M101.546 65.176V66.93L99.465 65.801V64.046L101.546 65.176Z" fill="#BFBFBF"/>
<path d="M51.984 45.026L54.387 43.485V41.819L50.747 43.352L49.903 43.897L51.984 45.026Z" fill="#A1A1A1"/>
<path d="M51.984 43.271L54.387 41.819L52.306 40.69L49.903 42.143L51.984 43.271Z" fill="#D9D9D9"/>
<path d="M51.984 43.271V45.026L49.903 43.897V42.143L51.984 43.271Z" fill="#BFBFBF"/>
<path d="M51.984 43.271L52.306 43.066V41.4L50.747 41.598L49.903 42.143L51.984 43.271Z" fill="#A1A1A1"/>
<path d="M51.984 41.518L52.306 41.4L50.225 40.271L49.903 40.389L51.984 41.518Z" fill="#D9D9D9"/>
<path d="M51.984 41.518V43.271L49.903 42.143V40.389L51.984 41.518Z" fill="#BFBFBF"/>
<path d="M31.496 11.298L32.801 8.466L27.721 5.472C27.54 5.351 27.299 5.353 27.032 5.507C26.472 5.83 26.019 6.697 26.019 7.444C26.019 7.822 26.135 8.095 26.323 8.232C26.35 8.252 26.381 8.26901 26.411 8.28301L31.496 11.298Z" fill="url(#paint0_linear_2_813)"/>
<path d="M33.191 9.317C33.191 10.063 32.737 10.93 32.177 11.253C31.617 11.576 31.164 11.233 31.164 10.487C31.164 9.741 31.617 8.87399 32.177 8.55099C32.737 8.22799 33.191 8.571 33.191 9.317Z" fill="#B5B5B5"/>
<path d="M30.899 10.341C30.899 9.59601 31.367 8.72901 31.926 8.40601C32.151 8.27701 32.357 8.25801 32.524 8.32601C32.339 8.17001 32.078 8.15401 31.786 8.32201C31.227 8.64501 30.758 9.51201 30.758 10.259C30.758 10.705 30.923 11.003 31.174 11.105C31.005 10.96 30.899 10.699 30.899 10.341Z" fill="#737373"/>
<path d="M30.573 10.148C30.573 9.40299 31.042 8.53601 31.602 8.21201C31.826 8.08301 32.032 8.064 32.199 8.131C32.014 7.975 31.753 7.95901 31.462 8.12801C30.903 8.45101 30.434 9.318 30.434 10.064C30.434 10.51 30.599 10.808 30.85 10.91C30.679 10.767 30.573 10.505 30.573 10.148Z" fill="#737373"/>
<path d="M30.248 9.955C30.248 9.209 30.716 8.342 31.276 8.019C31.501 7.89 31.706 7.871 31.874 7.939C31.689 7.783 31.429 7.767 31.136 7.935C30.577 8.258 30.109 9.12501 30.109 9.87101C30.109 10.318 30.274 10.616 30.525 10.717C30.354 10.574 30.248 10.312 30.248 9.955Z" fill="#737373"/>
<path d="M29.922 9.761C29.922 9.015 30.391 8.148 30.95 7.825C31.175 7.696 31.38 7.67701 31.548 7.74401C31.363 7.58801 31.102 7.57201 30.81 7.74001C30.251 8.06301 29.782 8.93001 29.782 9.67701C29.782 10.124 29.947 10.422 30.198 10.523C30.029 10.379 29.922 10.119 29.922 9.761Z" fill="#737373"/>
<path d="M29.597 9.567C29.597 8.821 30.065 7.95501 30.625 7.63201C30.849 7.50301 31.054 7.484 31.222 7.552C31.037 7.396 30.776 7.38001 30.485 7.54801C29.925 7.87101 29.457 8.738 29.457 9.485C29.457 9.932 29.622 10.23 29.873 10.331C29.703 10.186 29.597 9.925 29.597 9.567Z" fill="#737373"/>
<path d="M29.272 9.374C29.272 8.628 29.74 7.762 30.3 7.439C30.524 7.31 30.73 7.291 30.898 7.358C30.713 7.202 30.453 7.18601 30.161 7.35401C29.601 7.67701 29.133 8.544 29.133 9.29C29.133 9.736 29.298 10.035 29.549 10.136C29.378 9.993 29.272 9.732 29.272 9.374Z" fill="#737373"/>
<path d="M28.947 9.181C28.947 8.435 29.415 7.569 29.974 7.245C30.199 7.116 30.404 7.097 30.572 7.165C30.387 7.009 30.126 6.993 29.834 7.161C29.274 7.484 28.807 8.35101 28.807 9.09801C28.807 9.54401 28.972 9.843 29.223 9.944C29.052 9.799 28.947 9.539 28.947 9.181Z" fill="#737373"/>
<path d="M28.621 8.987C28.621 8.241 29.089 7.375 29.649 7.051C29.873 6.922 30.079 6.903 30.247 6.971C30.062 6.815 29.801 6.799 29.51 6.967C28.95 7.29 28.482 8.157 28.482 8.903C28.482 9.349 28.647 9.648 28.898 9.749C28.727 9.606 28.621 9.345 28.621 8.987Z" fill="#737373"/>
<path d="M28.296 8.79401C28.296 8.04801 28.764 7.182 29.323 6.858C29.548 6.729 29.753 6.70999 29.92 6.77699C29.736 6.62099 29.475 6.605 29.183 6.774C28.623 7.097 28.155 7.96401 28.155 8.71001C28.155 9.15701 28.32 9.455 28.571 9.556C28.402 9.413 28.296 9.15201 28.296 8.79401Z" fill="#737373"/>
<path d="M27.971 8.60099C27.971 7.85499 28.439 6.98799 28.998 6.66499C29.223 6.53599 29.428 6.517 29.596 6.585C29.411 6.429 29.15 6.41299 28.858 6.58099C28.298 6.90399 27.831 7.771 27.831 8.518C27.831 8.965 27.996 9.26299 28.246 9.36399C28.077 9.21899 27.971 8.95799 27.971 8.60099Z" fill="#737373"/>
<path d="M27.645 8.407C27.645 7.661 28.113 6.794 28.673 6.471C28.897 6.342 29.103 6.323 29.27 6.39C29.085 6.234 28.824 6.218 28.533 6.386C27.973 6.709 27.505 7.57601 27.505 8.32201C27.505 8.76901 27.67 9.067 27.921 9.168C27.751 9.026 27.645 8.765 27.645 8.407Z" fill="#737373"/>
<path d="M27.32 8.214C27.32 7.468 27.788 6.601 28.348 6.278C28.572 6.149 28.778 6.13 28.945 6.197C28.76 6.041 28.499 6.02499 28.208 6.19299C27.648 6.51599 27.18 7.383 27.18 8.13C27.18 8.577 27.345 8.87499 27.596 8.97599C27.426 8.83299 27.32 8.572 27.32 8.214Z" fill="#737373"/>
<path d="M26.994 8.02001C26.994 7.27401 27.462 6.40701 28.022 6.08501C28.246 5.95601 28.452 5.936 28.62 6.004C28.435 5.848 28.174 5.832 27.883 6C27.323 6.323 26.855 7.19001 26.855 7.93601C26.855 8.38201 27.02 8.681 27.271 8.782C27.101 8.639 26.994 8.37801 26.994 8.02001Z" fill="#737373"/>
<path d="M26.669 7.827C26.669 7.081 27.137 6.21401 27.696 5.89101C27.921 5.76201 28.126 5.74301 28.294 5.81101C28.109 5.65501 27.848 5.63901 27.557 5.80701C26.998 6.13001 26.529 6.99701 26.529 7.74401C26.529 8.19001 26.694 8.489 26.945 8.59C26.775 8.446 26.669 8.185 26.669 7.827Z" fill="#737373"/>
<path d="M26.343 7.63401C26.343 6.88701 26.812 6.021 27.371 5.698C27.595 5.569 27.801 5.55 27.969 5.618C27.783 5.462 27.523 5.446 27.231 5.614C26.672 5.937 26.203 6.80401 26.203 7.55001C26.203 7.99601 26.368 8.295 26.618 8.396C26.45 8.252 26.343 7.99101 26.343 7.63401Z" fill="#737373"/>
<path d="M30.99 22.611L40.7 1.78L39.813 1.124C38.473 0.235999 36.683 0.246007 34.708 1.38601C30.563 3.78001 27.203 10.2 27.203 15.726C27.203 18.521 28.064 20.549 29.451 21.564V21.565C29.519 21.615 29.59 21.662 29.661 21.706C30.061 21.954 30.029 21.959 30.418 22.224L30.99 22.611Z" fill="url(#paint1_linear_2_813)"/>
<path d="M43.605 7.999C43.605 13.526 40.245 19.946 36.1 22.339C31.955 24.732 28.595 22.192 28.595 16.665C28.595 11.138 31.955 4.718 36.1 2.325C40.246 -0.0679969 43.605 2.472 43.605 7.999Z" fill="#BE2F12"/>
<path d="M33.253 25.176L43.987 2.147L42.471 1.115C40.99 0.133 39.01 0.144002 36.828 1.404C32.246 4.05 28.531 11.148 28.531 17.258C28.531 20.347 29.483 22.59 31.016 23.712L31.017 23.713C31.093 23.769 31.17 23.82 31.249 23.869C31.691 24.143 32.191 24.456 32.622 24.747L33.253 25.176Z" fill="url(#paint2_linear_2_813)"/>
<path d="M47.199 9.02001C47.199 15.13 43.484 22.229 38.902 24.874C34.319 27.52 30.605 24.711 30.605 18.601C30.605 12.491 34.319 5.393 38.902 2.748C43.484 0.102003 47.199 2.91101 47.199 9.02001Z" fill="#BE3013"/>
<path d="M35.608 24.602C33.338 24.602 31.873 22.247 31.873 18.602C31.873 12.906 35.311 6.286 39.536 3.847C40.485 3.299 41.38 3.021 42.196 3.021C44.466 3.021 45.931 5.376 45.931 9.02C45.931 14.716 42.493 21.336 38.268 23.776C37.32 24.325 36.424 24.602 35.608 24.602Z" fill="#AF2D11"/>
<path d="M43.283 3.22701C44.681 4.04201 45.526 6.063 45.526 8.828C45.526 14.524 42.088 21.144 37.863 23.584C36.914 24.132 36.019 24.409 35.203 24.409C34.815 24.409 34.453 24.336 34.116 24.203C34.561 24.462 35.06 24.602 35.608 24.602C36.423 24.602 37.319 24.325 38.268 23.777C42.493 21.336 45.931 14.717 45.931 9.021C45.931 5.999 44.921 3.868 43.283 3.22701Z" fill="url(#paint3_linear_2_813)"/>
<path d="M36.223 27.77L47.719 3.106L45.498 1.61099C43.911 0.559991 41.792 0.571003 39.454 1.921C34.546 4.754 30.568 12.356 30.568 18.9C30.568 22.209 31.588 24.61 33.229 25.812L33.23 25.813C33.311 25.872 33.395 25.928 33.479 25.98C33.953 26.274 35.085 26.999 35.547 27.312L36.223 27.77Z" fill="url(#paint4_linear_2_813)"/>
<path d="M51.159 10.469C51.159 17.013 47.18 24.615 42.273 27.448C37.365 30.281 33.386 27.274 33.386 20.731C33.386 14.187 37.365 6.58601 42.273 3.75201C47.18 0.919005 51.159 3.926 51.159 10.469Z" fill="#CC2D0C"/>
<path d="M38.746 27.156C36.316 27.156 34.745 24.634 34.745 20.729C34.745 14.628 38.427 7.54 42.953 4.927C43.969 4.34 44.928 4.043 45.802 4.043C48.232 4.043 49.802 6.56499 49.802 10.469C49.802 16.57 46.12 23.659 41.595 26.272C40.578 26.859 39.619 27.156 38.746 27.156Z" fill="#BD2A0B"/>
<path d="M46.965 4.26401C48.462 5.13601 49.368 7.29999 49.368 10.262C49.368 16.362 45.686 23.451 41.161 26.065C40.145 26.651 39.186 26.949 38.312 26.949C37.897 26.949 37.509 26.87 37.147 26.728C37.624 27.006 38.159 27.156 38.746 27.156C39.62 27.156 40.578 26.859 41.595 26.272C46.12 23.659 49.802 16.57 49.802 10.469C49.801 7.23199 48.719 4.95101 46.965 4.26401Z" fill="url(#paint5_linear_2_813)"/>
<path d="M42.452 18.443L44.29 14.358L42.797 13.535C42.536 13.363 42.188 13.365 41.803 13.586C40.996 14.052 40.343 15.301 40.343 16.376C40.343 16.92 40.51 17.315 40.78 17.512L40.781 17.513C40.82 17.542 40.863 17.566 40.908 17.586L42.452 18.443Z" fill="url(#paint6_linear_2_813)"/>
<path d="M44.856 15.569C44.856 16.644 44.202 17.894 43.395 18.36C42.588 18.825 41.935 18.331 41.935 17.256C41.935 16.18 42.589 14.931 43.395 14.465C44.202 13.999 44.856 14.493 44.856 15.569Z" fill="#B5B5B5"/>
<path d="M44.579 15.917C44.579 16.731 44.084 17.676 43.474 18.028C42.864 18.381 42.369 18.007 42.369 17.193C42.369 16.379 42.864 15.434 43.474 15.082C44.084 14.729 44.579 15.103 44.579 15.917Z" fill="#666666"/>
<path d="M117.467 60.654L118.773 57.822L44.216 15.207C44.035 15.087 43.794 15.089 43.527 15.243C42.967 15.566 42.514 16.433 42.514 17.179C42.514 17.557 42.63 17.83 42.818 17.967V17.968C42.846 17.988 42.876 18.005 42.906 18.019L117.467 60.654Z" fill="url(#paint7_linear_2_813)"/>
<path d="M119.165 58.662C119.165 59.407 118.711 60.275 118.151 60.598C117.592 60.921 117.138 60.578 117.138 59.832C117.138 59.086 117.592 58.219 118.151 57.896C118.711 57.572 119.165 57.915 119.165 58.662Z" fill="#B5B5B5"/>
<path d="M111.213 70.503L122.708 45.84L120.487 44.344C118.901 43.293 116.781 43.304 114.443 44.654C109.535 47.487 105.557 55.089 105.557 61.633C105.557 64.942 106.577 67.343 108.218 68.545L108.219 68.546C108.3 68.605 108.383 68.661 108.467 68.713C108.941 69.007 110.073 69.732 110.535 70.045L111.213 70.503Z" fill="url(#paint8_linear_2_813)"/>
<path d="M126.149 53.202C126.149 59.746 122.17 67.348 117.263 70.181C112.355 73.015 108.376 70.007 108.376 63.464C108.376 56.92 112.355 49.319 117.263 46.485C122.171 43.651 126.149 46.659 126.149 53.202Z" fill="#CC2D0C"/>
<path d="M113.736 69.889C111.305 69.889 109.735 67.366 109.735 63.463C109.735 57.362 113.418 50.273 117.943 47.661C118.959 47.074 119.918 46.776 120.792 46.776C123.222 46.776 124.792 49.298 124.792 53.202C124.792 59.303 121.11 66.392 116.585 69.005C115.568 69.592 114.609 69.889 113.736 69.889Z" fill="#BD2A0B"/>
<path d="M121.955 46.997C123.453 47.871 124.358 50.034 124.358 52.996C124.358 59.096 120.677 66.185 116.151 68.799C115.135 69.385 114.176 69.683 113.302 69.683C112.887 69.683 112.5 69.604 112.138 69.462C112.615 69.74 113.15 69.89 113.736 69.89C114.609 69.89 115.569 69.593 116.584 69.006C121.11 66.393 124.791 59.304 124.791 53.203C124.791 49.965 123.71 47.684 121.955 46.997Z" fill="url(#paint9_linear_2_813)"/>
<path d="M114.457 71.258L125.191 48.229L123.675 47.198C122.194 46.216 120.214 46.227 118.032 47.487C113.45 50.133 109.735 57.231 109.735 63.341C109.735 66.431 110.688 68.672 112.22 69.795L112.221 69.796C112.296 69.852 112.374 69.903 112.453 69.953C112.895 70.227 113.394 70.54 113.826 70.831L114.457 71.258Z" fill="url(#paint10_linear_2_813)"/>
<path d="M128.404 55.104C128.404 61.214 124.69 68.311 120.107 70.957C115.524 73.603 111.81 70.795 111.81 64.685C111.81 58.575 115.525 51.477 120.107 48.831C124.689 46.185 128.404 48.994 128.404 55.104Z" fill="#CC2D0C"/>
<path d="M116.813 70.684C114.543 70.684 113.077 68.33 113.077 64.684C113.077 58.987 116.515 52.368 120.741 49.929C121.69 49.381 122.584 49.103 123.401 49.103C125.67 49.103 127.136 51.459 127.136 55.104C127.136 60.8 123.698 67.419 119.473 69.859C118.524 70.407 117.629 70.684 116.813 70.684Z" fill="#BD2A0B"/>
<path d="M124.488 49.309C125.886 50.125 126.731 52.145 126.731 54.91C126.731 60.606 123.293 67.225 119.068 69.665C118.119 70.213 117.223 70.49 116.408 70.49C116.02 70.49 115.658 70.417 115.321 70.285C115.766 70.544 116.265 70.684 116.813 70.684C117.628 70.684 118.523 70.407 119.473 69.858C123.699 67.419 127.136 60.799 127.136 55.103C127.136 52.081 126.126 49.951 124.488 49.309Z" fill="url(#paint11_linear_2_813)"/>
<path d="M116.902 71.021L126.611 50.19L125.724 49.534C124.385 48.646 122.594 48.656 120.62 49.796C116.475 52.189 113.114 58.609 113.114 64.136C113.114 66.931 113.976 68.959 115.362 69.974V69.975L115.363 69.976C115.432 70.026 115.502 70.073 115.573 70.117C115.972 70.366 115.94 70.371 116.33 70.635L116.902 71.021Z" fill="url(#paint12_linear_2_813)"/>
<path d="M129.518 56.408C129.518 61.934 126.157 68.355 122.013 70.748C117.868 73.142 114.507 70.602 114.507 65.075C114.507 59.548 117.867 53.127 122.013 50.735C126.157 48.341 129.518 50.881 129.518 56.408Z" fill="#CC2D0C"/>
<path d="M119.033 70.502C116.981 70.502 115.654 68.371 115.654 65.075C115.654 59.922 118.764 53.934 122.586 51.728C123.444 51.231 124.254 50.981 124.991 50.981C127.044 50.981 128.37 53.112 128.37 56.409C128.37 61.561 125.261 67.549 121.438 69.756C120.581 70.251 119.77 70.502 119.033 70.502Z" fill="#B31F00"/>
<path d="M125.975 51.167C127.239 51.904 128.004 53.731 128.004 56.232C128.004 61.385 124.895 67.373 121.073 69.58C120.215 70.075 119.404 70.326 118.667 70.326C118.316 70.326 117.989 70.26 117.684 70.14C118.087 70.374 118.538 70.501 119.034 70.501C119.772 70.501 120.582 70.25 121.44 69.754C125.262 67.547 128.372 61.56 128.372 56.407C128.371 53.674 127.456 51.747 125.975 51.167Z" fill="url(#paint13_linear_2_813)"/>
<path d="M122.259 63.909L124.097 59.824L122.604 59.001C122.343 58.828 121.995 58.83 121.611 59.052C120.805 59.517 120.151 60.767 120.151 61.842C120.151 62.386 120.318 62.781 120.588 62.978C120.628 63.008 120.671 63.031 120.716 63.052L122.259 63.909Z" fill="url(#paint14_linear_2_813)"/>
<path d="M124.662 61.034C124.662 62.109 124.008 63.359 123.202 63.825C122.395 64.291 121.742 63.796 121.742 62.721C121.742 61.645 122.396 60.396 123.202 59.931C124.008 59.464 124.662 59.958 124.662 61.034Z" fill="#B5B5B5"/>
<path d="M124.307 61.239C124.307 62.053 123.812 62.998 123.202 63.35C122.592 63.702 122.098 63.329 122.098 62.515C122.098 61.702 122.593 60.756 123.202 60.404C123.812 60.051 124.307 60.425 124.307 61.239Z" fill="#666666"/>
<path d="M127.735 66.402L129.04 63.571L123.96 60.576C123.779 60.456 123.537 60.458 123.27 60.612C122.711 60.935 122.258 61.801 122.258 62.548C122.258 62.925 122.374 63.198 122.561 63.336C122.589 63.357 122.619 63.373 122.65 63.387L127.735 66.402Z" fill="url(#paint15_linear_2_813)"/>
<path d="M129.43 64.42C129.43 65.167 128.976 66.033 128.417 66.356C127.857 66.679 127.404 66.336 127.404 65.59C127.404 64.844 127.857 63.977 128.417 63.654C128.976 63.331 129.43 63.674 129.43 64.42Z" fill="#B5B5B5"/>
<path d="M127.137 65.446C127.137 64.699 127.605 63.833 128.165 63.509C128.389 63.38 128.594 63.362 128.763 63.429C128.577 63.273 128.317 63.257 128.025 63.426C127.465 63.749 126.997 64.615 126.997 65.361C126.997 65.808 127.162 66.107 127.413 66.207C127.243 66.064 127.137 65.803 127.137 65.446Z" fill="#737373"/>
<path d="M126.812 65.252C126.812 64.506 127.281 63.639 127.84 63.316C128.065 63.187 128.27 63.169 128.438 63.236C128.253 63.08 127.993 63.064 127.701 63.233C127.142 63.556 126.673 64.423 126.673 65.169C126.673 65.616 126.838 65.914 127.089 66.015C126.918 65.871 126.812 65.609 126.812 65.252Z" fill="#737373"/>
<path d="M126.487 65.059C126.487 64.312 126.955 63.446 127.514 63.123C127.739 62.994 127.944 62.975 128.113 63.043C127.927 62.887 127.666 62.871 127.375 63.04C126.815 63.363 126.348 64.23 126.348 64.976C126.348 65.423 126.513 65.721 126.763 65.822C126.593 65.677 126.487 65.416 126.487 65.059Z" fill="#737373"/>
<path d="M126.161 64.865C126.161 64.119 126.629 63.252 127.189 62.929C127.413 62.8 127.619 62.781 127.786 62.849C127.601 62.693 127.34 62.677 127.049 62.846C126.489 63.169 126.021 64.035 126.021 64.782C126.021 65.229 126.186 65.527 126.437 65.628C126.267 65.484 126.161 65.222 126.161 64.865Z" fill="#737373"/>
<path d="M125.836 64.672C125.836 63.926 126.304 63.059 126.863 62.736C127.088 62.606 127.293 62.589 127.46 62.656C127.276 62.5 127.015 62.484 126.723 62.652C126.164 62.975 125.695 63.841 125.695 64.588C125.695 65.035 125.86 65.333 126.111 65.434C125.942 65.29 125.836 65.029 125.836 64.672Z" fill="#737373"/>
<path d="M125.511 64.479C125.511 63.733 125.979 62.866 126.538 62.543C126.763 62.413 126.968 62.396 127.136 62.463C126.951 62.307 126.69 62.291 126.398 62.46C125.839 62.783 125.371 63.649 125.371 64.396C125.371 64.843 125.536 65.141 125.786 65.242C125.617 65.097 125.511 64.835 125.511 64.479Z" fill="#737373"/>
<path d="M125.186 64.285C125.186 63.538 125.654 62.672 126.214 62.349C126.438 62.219 126.644 62.202 126.811 62.268C126.627 62.112 126.365 62.096 126.074 62.265C125.515 62.588 125.046 63.454 125.046 64.201C125.046 64.648 125.211 64.946 125.462 65.047C125.291 64.904 125.186 64.642 125.186 64.285Z" fill="#737373"/>
<path d="M124.86 64.092C124.86 63.345 125.328 62.479 125.888 62.156C126.112 62.026 126.318 62.008 126.486 62.075C126.301 61.919 126.04 61.903 125.749 62.072C125.189 62.395 124.721 63.262 124.721 64.008C124.721 64.455 124.886 64.753 125.136 64.853C124.966 64.71 124.86 64.449 124.86 64.092Z" fill="#737373"/>
<path d="M124.535 63.898C124.535 63.151 125.003 62.285 125.563 61.962C125.788 61.832 125.993 61.814 126.161 61.881C125.976 61.725 125.715 61.709 125.424 61.878C124.864 62.201 124.396 63.068 124.396 63.814C124.396 64.261 124.561 64.559 124.812 64.659C124.641 64.517 124.535 64.255 124.535 63.898Z" fill="#737373"/>
<path d="M124.21 63.705C124.21 62.959 124.678 62.092 125.237 61.769C125.462 61.639 125.667 61.621 125.835 61.689C125.65 61.533 125.389 61.517 125.098 61.686C124.538 62.009 124.07 62.876 124.07 63.622C124.07 64.069 124.235 64.367 124.486 64.467C124.315 64.323 124.21 64.062 124.21 63.705Z" fill="#737373"/>
<path d="M123.883 63.511C123.883 62.765 124.352 61.898 124.912 61.575C125.136 61.445 125.342 61.427 125.509 61.494C125.323 61.338 125.063 61.322 124.772 61.491C124.212 61.814 123.744 62.68 123.744 63.427C123.744 63.873 123.909 64.172 124.16 64.272C123.99 64.13 123.883 63.868 123.883 63.511Z" fill="#737373"/>
<path d="M123.559 63.318C123.559 62.572 124.027 61.705 124.587 61.382C124.812 61.253 125.016 61.235 125.184 61.302C124.999 61.146 124.739 61.13 124.447 61.298C123.888 61.621 123.42 62.487 123.42 63.234C123.42 63.68 123.585 63.979 123.836 64.079C123.665 63.936 123.559 63.675 123.559 63.318Z" fill="#737373"/>
<path d="M123.233 63.124C123.233 62.378 123.701 61.511 124.26 61.188C124.485 61.059 124.69 61.04 124.859 61.108C124.673 60.952 124.413 60.936 124.121 61.105C123.562 61.428 123.094 62.294 123.094 63.041C123.094 63.488 123.259 63.786 123.509 63.887C123.339 63.743 123.233 63.481 123.233 63.124Z" fill="#737373"/>
<path d="M122.907 62.931C122.907 62.185 123.376 61.318 123.935 60.995C124.16 60.866 124.365 60.848 124.533 60.914C124.348 60.758 124.087 60.742 123.796 60.911C123.236 61.234 122.768 62.1 122.768 62.847C122.768 63.294 122.933 63.592 123.184 63.693C123.013 63.55 122.907 63.288 122.907 62.931Z" fill="#737373"/>
<path d="M122.582 62.738C122.582 61.992 123.05 61.125 123.609 60.802C123.834 60.673 124.039 60.654 124.206 60.721C124.022 60.565 123.761 60.549 123.469 60.717C122.91 61.041 122.442 61.907 122.442 62.653C122.442 63.1 122.606 63.398 122.857 63.499C122.688 63.356 122.582 63.095 122.582 62.738Z" fill="#737373"/>
<path d="M103.649 52.086C103.649 51.339 104.117 50.473 104.677 50.15C104.901 50.021 105.107 50.002 105.274 50.07C105.09 49.914 104.828 49.898 104.537 50.066C103.977 50.39 103.509 51.256 103.509 52.002C103.509 52.449 103.673 52.747 103.924 52.848C103.755 52.705 103.649 52.443 103.649 52.086Z" fill="#737373"/>
<path d="M103.083 51.766C103.083 51.019 103.552 50.153 104.111 49.83C104.336 49.701 104.541 49.682 104.709 49.75C104.524 49.594 104.263 49.578 103.972 49.747C103.413 50.07 102.944 50.937 102.944 51.683C102.944 52.13 103.109 52.428 103.36 52.529C103.188 52.384 103.083 52.123 103.083 51.766Z" fill="#737373"/>
<path d="M102.517 51.445C102.517 50.699 102.985 49.832 103.544 49.509C103.769 49.38 103.974 49.361 104.142 49.428C103.957 49.272 103.697 49.256 103.405 49.424C102.845 49.747 102.377 50.614 102.377 51.36C102.377 51.807 102.542 52.105 102.793 52.206C102.623 52.064 102.517 51.802 102.517 51.445Z" fill="#737373"/>
<path d="M101.95 51.124C101.95 50.377 102.418 49.511 102.977 49.188C103.202 49.059 103.407 49.04 103.575 49.108C103.39 48.952 103.129 48.936 102.838 49.104C102.278 49.428 101.811 50.294 101.811 51.04C101.811 51.487 101.975 51.786 102.226 51.886C102.056 51.743 101.95 51.482 101.95 51.124Z" fill="#737373"/>
<path d="M101.383 50.804C101.383 50.057 101.851 49.191 102.41 48.868C102.635 48.739 102.84 48.721 103.009 48.788C102.823 48.632 102.563 48.616 102.271 48.785C101.712 49.108 101.244 49.974 101.244 50.72C101.244 51.167 101.409 51.466 101.659 51.567C101.49 51.423 101.383 51.161 101.383 50.804Z" fill="#737373"/>
<path d="M100.817 50.483C100.817 49.737 101.285 48.87 101.845 48.547C102.069 48.417 102.275 48.399 102.442 48.466C102.257 48.31 101.996 48.294 101.705 48.463C101.145 48.786 100.677 49.653 100.677 50.399C100.677 50.846 100.842 51.144 101.093 51.246C100.923 51.102 100.817 50.841 100.817 50.483Z" fill="#737373"/>
<path d="M100.25 50.163C100.25 49.417 100.718 48.55 101.278 48.227C101.502 48.098 101.708 48.079 101.876 48.147C101.69 47.991 101.43 47.975 101.139 48.143C100.578 48.466 100.111 49.333 100.111 50.079C100.111 50.526 100.276 50.825 100.527 50.925C100.356 50.782 100.25 50.52 100.25 50.163Z" fill="#737373"/>
<path d="M99.685 49.843C99.685 49.097 100.153 48.23 100.713 47.906C100.937 47.777 101.143 47.759 101.31 47.826C101.125 47.669 100.864 47.653 100.573 47.822C100.013 48.145 99.545 49.011 99.545 49.757C99.545 50.204 99.71 50.503 99.961 50.604C99.791 50.461 99.685 50.2 99.685 49.843Z" fill="#737373"/>
<path d="M99.118 49.522C99.118 48.776 99.586 47.91 100.146 47.586C100.37 47.456 100.576 47.438 100.743 47.506C100.559 47.35 100.298 47.334 100.006 47.502C99.446 47.825 98.978 48.692 98.978 49.438C98.978 49.885 99.143 50.183 99.393 50.284C99.224 50.141 99.118 49.879 99.118 49.522Z" fill="#737373"/>
<path d="M98.552 49.201C98.552 48.456 99.02 47.589 99.58 47.265C99.805 47.136 100.009 47.117 100.178 47.185C99.992 47.029 99.732 47.013 99.44 47.181C98.881 47.504 98.413 48.371 98.413 49.118C98.413 49.564 98.578 49.863 98.829 49.964C98.658 49.82 98.552 49.559 98.552 49.201Z" fill="#737373"/>
<path d="M97.985 48.881C97.985 48.135 98.453 47.268 99.013 46.944C99.238 46.815 99.443 46.797 99.611 46.864C99.427 46.708 99.165 46.692 98.874 46.86C98.315 47.183 97.846 48.049 97.846 48.796C97.846 49.243 98.011 49.541 98.262 49.642C98.091 49.5 97.985 49.238 97.985 48.881Z" fill="#737373"/>
<path d="M97.419 48.561C97.419 47.815 97.887 46.949 98.447 46.625C98.671 46.495 98.877 46.477 99.045 46.545C98.86 46.389 98.599 46.373 98.307 46.541C97.748 46.864 97.28 47.731 97.28 48.477C97.28 48.924 97.445 49.222 97.695 49.323C97.525 49.179 97.419 48.918 97.419 48.561Z" fill="#737373"/>
<path d="M96.852 48.24C96.852 47.495 97.321 46.628 97.881 46.304C98.105 46.175 98.311 46.156 98.478 46.224C98.293 46.068 98.032 46.052 97.741 46.22C97.181 46.543 96.713 47.41 96.713 48.156C96.713 48.602 96.878 48.9 97.129 49.002C96.958 48.859 96.852 48.597 96.852 48.24Z" fill="#737373"/>
<path d="M96.286 47.92C96.286 47.174 96.754 46.307 97.314 45.983C97.538 45.854 97.744 45.836 97.912 45.903C97.727 45.747 97.466 45.731 97.175 45.899C96.615 46.222 96.147 47.088 96.147 47.835C96.147 48.281 96.311 48.58 96.562 48.681C96.393 48.539 96.286 48.277 96.286 47.92Z" fill="#737373"/>
<path d="M95.72 47.599C95.72 46.853 96.188 45.987 96.747 45.663C96.972 45.534 97.177 45.515 97.345 45.583C97.16 45.427 96.899 45.411 96.608 45.579C96.049 45.902 95.581 46.769 95.581 47.515C95.581 47.962 95.745 48.26 95.996 48.361C95.826 48.218 95.72 47.956 95.72 47.599Z" fill="#737373"/>
<path d="M56.691 25.282C56.691 24.536 57.159 23.669 57.719 23.346C57.943 23.217 58.149 23.198 58.316 23.266C58.13 23.11 57.87 23.094 57.579 23.262C57.018 23.586 56.55 24.452 56.55 25.198C56.55 25.645 56.715 25.943 56.966 26.044C56.797 25.901 56.691 25.64 56.691 25.282Z" fill="#737373"/>
<path d="M56.12 24.958C56.12 24.212 56.588 23.345 57.147 23.022C57.372 22.893 57.577 22.874 57.745 22.942C57.56 22.786 57.3 22.77 57.008 22.939C56.449 23.262 55.981 24.128 55.981 24.874C55.981 25.321 56.145 25.619 56.397 25.72C56.227 25.577 56.12 25.315 56.12 24.958Z" fill="#737373"/>
<path d="M55.548 24.633C55.548 23.887 56.017 23.02 56.576 22.697C56.801 22.568 57.006 22.549 57.174 22.617C56.989 22.461 56.728 22.445 56.436 22.613C55.877 22.936 55.408 23.802 55.408 24.549C55.408 24.996 55.573 25.294 55.824 25.395C55.654 25.252 55.548 24.991 55.548 24.633Z" fill="#737373"/>
<path d="M54.977 24.309C54.977 23.563 55.445 22.697 56.004 22.373C56.229 22.244 56.434 22.226 56.602 22.294C56.417 22.137 56.156 22.121 55.864 22.29C55.304 22.613 54.837 23.48 54.837 24.226C54.837 24.674 55.002 24.971 55.252 25.072C55.083 24.928 54.977 24.666 54.977 24.309Z" fill="#737373"/>
<path d="M54.406 23.984C54.406 23.238 54.874 22.372 55.434 22.048C55.658 21.918 55.864 21.901 56.031 21.968C55.846 21.812 55.585 21.796 55.294 21.964C54.734 22.287 54.266 23.154 54.266 23.9C54.266 24.347 54.431 24.645 54.681 24.746C54.511 24.604 54.406 24.342 54.406 23.984Z" fill="#737373"/>
<path d="M53.834 23.66C53.834 22.914 54.302 22.048 54.862 21.724C55.086 21.595 55.292 21.576 55.459 21.644C55.274 21.488 55.013 21.472 54.722 21.64C54.162 21.963 53.693 22.83 53.693 23.576C53.693 24.023 53.858 24.321 54.109 24.422C53.94 24.279 53.834 24.018 53.834 23.66Z" fill="#737373"/>
<path d="M53.263 23.336C53.263 22.59 53.731 21.723 54.291 21.4C54.516 21.27 54.721 21.252 54.888 21.32C54.703 21.164 54.443 21.148 54.151 21.317C53.591 21.64 53.123 22.506 53.123 23.253C53.123 23.7 53.288 23.998 53.539 24.1C53.369 23.955 53.263 23.693 53.263 23.336Z" fill="#737373"/>
<path d="M52.691 23.011C52.691 22.265 53.16 21.399 53.719 21.075C53.944 20.946 54.149 20.927 54.317 20.994C54.132 20.839 53.871 20.823 53.579 20.991C53.02 21.314 52.551 22.181 52.551 22.928C52.551 23.374 52.716 23.673 52.967 23.774C52.797 23.63 52.691 23.369 52.691 23.011Z" fill="#737373"/>
<path d="M52.12 22.687C52.12 21.941 52.588 21.075 53.148 20.751C53.372 20.622 53.578 20.603 53.746 20.671C53.561 20.514 53.3 20.498 53.008 20.667C52.449 20.99 51.981 21.856 51.981 22.603C51.981 23.05 52.146 23.349 52.396 23.45C52.226 23.306 52.12 23.044 52.12 22.687Z" fill="#737373"/>
<path d="M51.548 22.362C51.548 21.616 52.016 20.749 52.576 20.426C52.8 20.297 53.006 20.279 53.173 20.346C52.988 20.19 52.727 20.174 52.436 20.342C51.876 20.666 51.408 21.532 51.408 22.278C51.408 22.725 51.572 23.024 51.824 23.124C51.654 22.981 51.548 22.72 51.548 22.362Z" fill="#737373"/>
<path d="M50.977 22.039C50.977 21.292 51.445 20.426 52.005 20.103C52.229 19.974 52.435 19.955 52.602 20.023C52.418 19.867 52.157 19.851 51.865 20.019C51.305 20.342 50.837 21.209 50.837 21.955C50.837 22.402 51.002 22.701 51.253 22.801C51.083 22.657 50.977 22.396 50.977 22.039Z" fill="#737373"/>
<path d="M50.406 21.714C50.406 20.967 50.874 20.1 51.433 19.777C51.658 19.648 51.863 19.63 52.031 19.697C51.846 19.541 51.585 19.525 51.293 19.694C50.733 20.017 50.265 20.883 50.265 21.63C50.265 22.077 50.43 22.375 50.681 22.476C50.512 22.333 50.406 22.071 50.406 21.714Z" fill="#737373"/>
<path d="M49.834 21.39C49.834 20.643 50.303 19.777 50.862 19.454C51.087 19.325 51.292 19.306 51.46 19.374C51.275 19.218 51.014 19.202 50.723 19.37C50.163 19.693 49.695 20.561 49.695 21.306C49.695 21.753 49.86 22.051 50.111 22.152C49.94 22.008 49.834 21.747 49.834 21.39Z" fill="#737373"/>
<path d="M49.262 21.065C49.262 20.319 49.73 19.453 50.291 19.129C50.515 19 50.72 18.981 50.888 19.049C50.702 18.892 50.442 18.877 50.15 19.045C49.59 19.368 49.122 20.235 49.122 20.981C49.122 21.429 49.287 21.726 49.538 21.827C49.368 21.684 49.262 21.422 49.262 21.065Z" fill="#737373"/>
<path d="M48.691 20.741C48.691 19.994 49.16 19.128 49.719 18.805C49.943 18.676 50.149 18.657 50.316 18.725C50.131 18.569 49.87 18.553 49.579 18.721C49.019 19.044 48.551 19.911 48.551 20.657C48.551 21.104 48.715 21.402 48.966 21.503C48.797 21.359 48.691 21.098 48.691 20.741Z" fill="#737373"/>
<path d="M13.965 120.029L3.812 114.588C3.749 114.54 3.682 114.503 3.612 114.472C3.292 114.331 2.893 114.365 2.459 114.615C1.408 115.222 0.556 116.849 0.556 118.253C0.556 119.055 0.837 119.607 1.274 119.82L11.469 125.284L11.518 124.9C11.646 124.862 11.778 124.805 11.914 124.726C12.965 124.119 13.817 122.491 13.817 121.09C13.817 120.732 13.76 120.423 13.659 120.171L13.965 120.029Z" fill="url(#paint16_linear_2_813)"/>
<path d="M14.521 121.501C14.521 122.902 13.668 124.529 12.618 125.137C11.566 125.744 10.714 125.1 10.714 123.699C10.714 122.297 11.566 120.67 12.618 120.061C13.668 119.455 14.521 120.098 14.521 121.501Z" fill="#293138"/>
<path d="M13.799 121.962C13.799 122.775 13.306 123.719 12.696 124.07C12.087 124.422 11.592 124.048 11.592 123.236C11.592 122.424 12.086 121.48 12.696 121.128C13.306 120.776 13.799 121.149 13.799 121.962Z" fill="#D5D5D5"/>
<path d="M12.52 123.942C13.13 123.59 13.624 122.647 13.624 121.835C13.624 121.481 13.526 121.215 13.369 121.052C13.63 121.171 13.8 121.49 13.8 121.962C13.8 122.775 13.307 123.719 12.697 124.07C12.354 124.268 12.051 124.229 11.848 124.019C12.035 124.103 12.266 124.09 12.52 123.942Z" fill="#767E87"/>
<path d="M16.667 120.735V123.848L10.932 126.864V123.753L16.667 120.735Z" fill="#A1A1A1"/>
<path d="M8.37201 122.44V125.552L10.932 126.864V123.753L8.37201 122.44Z" fill="#BFBFBF"/>
<path d="M14.081 119.296L8.37201 122.44L10.932 123.753L16.667 120.735L14.081 119.296Z" fill="#D9D9D9"/>
<path d="M25.646 126.774L15.493 121.332C15.431 121.285 15.364 121.248 15.293 121.217C14.973 121.076 14.574 121.111 14.141 121.361C13.089 121.966 12.238 123.596 12.238 124.997C12.238 125.801 12.519 126.354 12.955 126.567L23.15 132.029L23.2 131.645C23.327 131.607 23.46 131.551 23.596 131.472C24.647 130.865 25.499 129.237 25.499 127.835C25.499 127.476 25.442 127.168 25.341 126.916L25.646 126.774Z" fill="url(#paint17_linear_2_813)"/>
<path d="M26.202 128.245C26.202 129.646 25.35 131.274 24.298 131.883C23.247 132.488 22.395 131.845 22.395 130.444C22.395 129.043 23.248 127.415 24.298 126.807C25.35 126.199 26.202 126.844 26.202 128.245Z" fill="#131719"/>
<path d="M25.48 128.707C25.48 129.52 24.986 130.462 24.377 130.815C23.767 131.167 23.273 130.793 23.273 129.981C23.273 129.169 23.767 128.225 24.377 127.873C24.986 127.522 25.48 127.895 25.48 128.707Z" fill="#A1A1A1"/>
<path d="M24.201 130.688C24.811 130.337 25.304 129.393 25.304 128.58C25.304 128.226 25.206 127.961 25.049 127.798C25.309 127.916 25.48 128.234 25.48 128.708C25.48 129.521 24.986 130.463 24.377 130.816C24.034 131.015 23.731 130.976 23.529 130.764C23.715 130.849 23.946 130.834 24.201 130.688Z" fill="#D9D9D9"/>
<path d="M51.984 24.404L52.306 24.198V22.532L50.747 22.73L49.903 23.275L51.984 24.404Z" fill="#A1A1A1"/>
<path d="M51.984 22.65L52.306 22.532L50.225 21.403L49.903 21.521L51.984 22.65Z" fill="#D9D9D9"/>
<path d="M51.984 22.65V24.404L49.903 23.275V21.521L51.984 22.65Z" fill="#BFBFBF"/>
<path d="M101.546 52.2L101.868 51.994V50.328L100.309 50.526L99.465 51.071L101.546 52.2Z" fill="#A1A1A1"/>
<path d="M101.546 50.446L101.868 50.328L99.787 49.199L99.465 49.317L101.546 50.446Z" fill="#D9D9D9"/>
<path d="M101.546 50.446V52.2L99.465 51.071V49.317L101.546 50.446Z" fill="#BFBFBF"/>
<defs>
<linearGradient id="paint0_linear_2_813" x1="30.3279" y1="6.3583" x2="28.7428" y2="9.0858" gradientUnits="userSpaceOnUse">
<stop offset="0.1642" stop-color="#BFBFBF"/>
<stop offset="0.1653" stop-color="#D9D9D9"/>
<stop offset="0.4378" stop-color="#D9D9D9"/>
<stop offset="0.4407" stop-color="#BFBFBF"/>
<stop offset="0.8367" stop-color="#BFBFBF"/>
<stop offset="0.8387" stop-color="#A1A1A1"/>
</linearGradient>
<linearGradient id="paint1_linear_2_813" x1="37.2658" y1="0.0547024" x2="27.4925" y2="20.6838" gradientUnits="userSpaceOnUse">
<stop offset="0.1261" stop-color="#EB3817"/>
<stop offset="0.1368" stop-color="#F15737"/>
<stop offset="0.4378" stop-color="#F15737"/>
<stop offset="0.4455" stop-color="#EB3817"/>
<stop offset="0.8367" stop-color="#EB3817"/>
<stop offset="0.8387" stop-color="#AF2C12"/>
</linearGradient>
<linearGradient id="paint2_linear_2_813" x1="39.9326" y1="0.0649008" x2="29.1081" y2="22.9126" gradientUnits="userSpaceOnUse">
<stop offset="0.1261" stop-color="#EB3817"/>
<stop offset="0.1368" stop-color="#EB5535"/>
<stop offset="0.4378" stop-color="#EB5535"/>
<stop offset="0.4455" stop-color="#EB3817"/>
<stop offset="0.8367" stop-color="#EB3817"/>
<stop offset="0.8387" stop-color="#AF2D11"/>
</linearGradient>
<linearGradient id="paint3_linear_2_813" x1="46.188" y1="5.2369" x2="35.9028" y2="24.9619" gradientUnits="userSpaceOnUse">
<stop offset="0.1613" stop-color="#AF2D11"/>
<stop offset="0.1633" stop-color="#EB3817"/>
<stop offset="0.5545" stop-color="#EB3817"/>
<stop offset="0.5622" stop-color="#EB5535"/>
<stop offset="0.8632" stop-color="#EB5535"/>
<stop offset="0.8739" stop-color="#EB3817"/>
</linearGradient>
<linearGradient id="paint4_linear_2_813" x1="43.0982" y1="0.638596" x2="31.4645" y2="25.1944" gradientUnits="userSpaceOnUse">
<stop offset="0.1261" stop-color="#F93A17"/>
<stop offset="0.1368" stop-color="#FF5B38"/>
<stop offset="0.4378" stop-color="#FF5B38"/>
<stop offset="0.4455" stop-color="#F93A17"/>
<stop offset="0.8367" stop-color="#F93A17"/>
<stop offset="0.8387" stop-color="#BD2A0B"/>
</linearGradient>
<linearGradient id="paint5_linear_2_813" x1="50.0758" y1="6.41711" x2="39.0608" y2="27.5416" gradientUnits="userSpaceOnUse">
<stop offset="0.1613" stop-color="#BD2A0B"/>
<stop offset="0.1633" stop-color="#F93A17"/>
<stop offset="0.5545" stop-color="#F93A17"/>
<stop offset="0.5622" stop-color="#FF5B38"/>
<stop offset="0.8632" stop-color="#FF5B38"/>
<stop offset="0.8739" stop-color="#F93A17"/>
</linearGradient>
<linearGradient id="paint6_linear_2_813" x1="43.6495" y1="13.0881" x2="41.3811" y2="16.991" gradientUnits="userSpaceOnUse">
<stop offset="0.1642" stop-color="#BFBFBF"/>
<stop offset="0.1653" stop-color="#D9D9D9"/>
<stop offset="0.4378" stop-color="#D9D9D9"/>
<stop offset="0.4407" stop-color="#BFBFBF"/>
<stop offset="0.8367" stop-color="#BFBFBF"/>
<stop offset="0.8387" stop-color="#A1A1A1"/>
</linearGradient>
<linearGradient id="paint7_linear_2_813" x1="81.7567" y1="35.5661" x2="79.884" y2="38.7883" gradientUnits="userSpaceOnUse">
<stop offset="0.1642" stop-color="#BFBFBF"/>
<stop offset="0.1653" stop-color="#D9D9D9"/>
<stop offset="0.4378" stop-color="#D9D9D9"/>
<stop offset="0.4407" stop-color="#BFBFBF"/>
<stop offset="0.8367" stop-color="#BFBFBF"/>
<stop offset="0.8387" stop-color="#A1A1A1"/>
</linearGradient>
<linearGradient id="paint8_linear_2_813" x1="118.089" y1="43.3714" x2="106.455" y2="67.9272" gradientUnits="userSpaceOnUse">
<stop offset="0.1261" stop-color="#F93A17"/>
<stop offset="0.1368" stop-color="#FF5B38"/>
<stop offset="0.4378" stop-color="#FF5B38"/>
<stop offset="0.4455" stop-color="#F93A17"/>
<stop offset="0.8367" stop-color="#F93A17"/>
<stop offset="0.8387" stop-color="#BD2A0B"/>
</linearGradient>
<linearGradient id="paint9_linear_2_813" x1="125.066" y1="49.1497" x2="114.051" y2="70.2742" gradientUnits="userSpaceOnUse">
<stop offset="0.1613" stop-color="#BD2A0B"/>
<stop offset="0.1633" stop-color="#F93A17"/>
<stop offset="0.5545" stop-color="#F93A17"/>
<stop offset="0.5622" stop-color="#FF5B38"/>
<stop offset="0.8632" stop-color="#FF5B38"/>
<stop offset="0.8739" stop-color="#F93A17"/>
</linearGradient>
<linearGradient id="paint10_linear_2_813" x1="121.137" y1="46.147" x2="110.313" y2="68.9947" gradientUnits="userSpaceOnUse">
<stop offset="0.1261" stop-color="#F93A17"/>
<stop offset="0.1368" stop-color="#FF5B38"/>
<stop offset="0.4378" stop-color="#FF5B38"/>
<stop offset="0.4455" stop-color="#F93A17"/>
<stop offset="0.8367" stop-color="#F93A17"/>
<stop offset="0.8387" stop-color="#BD2A0B"/>
</linearGradient>
<linearGradient id="paint11_linear_2_813" x1="127.393" y1="51.3191" x2="117.108" y2="71.0442" gradientUnits="userSpaceOnUse">
<stop offset="0.1613" stop-color="#BD2A0B"/>
<stop offset="0.1633" stop-color="#F93A17"/>
<stop offset="0.5545" stop-color="#F93A17"/>
<stop offset="0.5622" stop-color="#FF5B38"/>
<stop offset="0.8632" stop-color="#FF5B38"/>
<stop offset="0.8739" stop-color="#F93A17"/>
</linearGradient>
<linearGradient id="paint12_linear_2_813" x1="123.178" y1="48.4642" x2="113.404" y2="69.0933" gradientUnits="userSpaceOnUse">
<stop offset="0.1261" stop-color="#F93A17"/>
<stop offset="0.1368" stop-color="#FF5B38"/>
<stop offset="0.4378" stop-color="#FF5B38"/>
<stop offset="0.4455" stop-color="#F93A17"/>
<stop offset="0.8367" stop-color="#F93A17"/>
<stop offset="0.8387" stop-color="#BD2A0B"/>
</linearGradient>
<linearGradient id="paint13_linear_2_813" x1="128.603" y1="52.9854" x2="119.299" y2="70.8274" gradientUnits="userSpaceOnUse">
<stop offset="0.1613" stop-color="#BD2A0B"/>
<stop offset="0.1633" stop-color="#F93A17"/>
<stop offset="0.5545" stop-color="#F93A17"/>
<stop offset="0.5622" stop-color="#FF5B38"/>
<stop offset="0.8632" stop-color="#FF5B38"/>
<stop offset="0.8739" stop-color="#F93A17"/>
</linearGradient>
<linearGradient id="paint14_linear_2_813" x1="123.456" y1="58.553" x2="121.188" y2="62.4559" gradientUnits="userSpaceOnUse">
<stop offset="0.1642" stop-color="#BFBFBF"/>
<stop offset="0.1653" stop-color="#D9D9D9"/>
<stop offset="0.4378" stop-color="#D9D9D9"/>
<stop offset="0.4407" stop-color="#BFBFBF"/>
<stop offset="0.8367" stop-color="#BFBFBF"/>
<stop offset="0.8387" stop-color="#A1A1A1"/>
</linearGradient>
<linearGradient id="paint15_linear_2_813" x1="126.567" y1="61.462" x2="124.982" y2="64.19" gradientUnits="userSpaceOnUse">
<stop offset="0.1642" stop-color="#BFBFBF"/>
<stop offset="0.1653" stop-color="#D9D9D9"/>
<stop offset="0.4378" stop-color="#D9D9D9"/>
<stop offset="0.4407" stop-color="#BFBFBF"/>
<stop offset="0.8367" stop-color="#BFBFBF"/>
<stop offset="0.8387" stop-color="#A1A1A1"/>
</linearGradient>
<linearGradient id="paint16_linear_2_813" x1="8.5885" y1="116.939" x2="5.9135" y2="122.153" gradientUnits="userSpaceOnUse">
<stop offset="0.1165" stop-color="#293138"/>
<stop offset="0.1244" stop-color="#434F5C"/>
<stop offset="0.5292" stop-color="#434F5C"/>
<stop offset="0.5307" stop-color="#293138"/>
<stop offset="0.8537" stop-color="#293138"/>
<stop offset="0.8699" stop-color="#1E2429"/>
</linearGradient>
<linearGradient id="paint17_linear_2_813" x1="20.3139" y1="123.843" x2="17.5087" y2="128.834" gradientUnits="userSpaceOnUse">
<stop offset="0.1165" stop-color="#293138"/>
<stop offset="0.1244" stop-color="#434F5C"/>
<stop offset="0.5292" stop-color="#434F5C"/>
<stop offset="0.5307" stop-color="#293138"/>
<stop offset="0.8537" stop-color="#293138"/>
<stop offset="0.8699" stop-color="#1E2429"/>
</linearGradient>
</defs>
</svg>
